<svg width="32" height="32" viewBox="0 0 32 32" fill="none" xmlns="http://www.w3.org/2000/svg">
  <!-- R orange (arrière-plan) -->
  <path d="M10 4C10 2.89543 10.8954 2 12 2H16C19.3137 2 22 4.68629 22 8C22 9.5913 21.3679 11.1174 20.2426 12.2426C21.3679 13.3679 22 14.8939 22 16.4852C22 19.799 19.3137 22.4852 16 22.4852H12C10.8954 22.4852 10 21.5898 10 20.4852V4Z" fill="#F08040" transform="skewX(-10) translate(2, 1)"/>
  
  <!-- R bleu (premier plan) -->
  <path d="M8 4C8 2.89543 8.89543 2 10 2H14C17.3137 2 20 4.68629 20 8C20 9.5913 19.3679 11.1174 18.2426 12.2426C19.3679 13.3679 20 14.8939 20 16.4852C20 19.799 17.3137 22.4852 14 22.4852H10C8.89543 22.4852 8 21.5898 8 20.4852V4Z" fill="#6A70F0" transform="skewX(-10)"/>
</svg>