<svg width="200" height="200" viewBox="0 0 200 200" fill="none" xmlns="http://www.w3.org/2000/svg">
  <!-- Fond blanc -->
  <rect width="200" height="200" fill="white"/>
  
  <!-- R orange (arrière-plan) -->
  <path d="M60 25C60 18.0964 65.5964 12.5 72.5 12.5H97.5C110.479 12.5 120 22.0208 120 35C120 47.9792 110.479 57.5 97.5 57.5H72.5C65.5964 57.5 60 51.9036 60 45V25Z" fill="#F08040" transform="skewX(-10) translate(12, 6)"/>
  
  <!-- R bleu (premier plan) -->
  <path d="M50 25C50 18.0964 55.5964 12.5 62.5 12.5H87.5C100.479 12.5 110 22.0208 110 35C110 47.9792 100.479 57.5 87.5 57.5H62.5C55.5964 57.5 50 51.9036 50 45V25Z" fill="#6A70F0" transform="skewX(-10)"/>
</svg>