<svg width="400" height="400" viewBox="0 0 400 400" fill="none" xmlns="http://www.w3.org/2000/svg">
  <!-- Fond blanc -->
  <rect width="400" height="400" fill="white"/>
  
  <!-- R orange (arrière-plan) décalé -->
  <path d="M200 80C200 62.3268 214.327 48 232 48H328C381.019 48 424 90.9806 424 144C424 197.019 381.019 240 328 240H232C214.327 240 200 225.673 200 208V80Z" 
        fill="#F08040" 
        transform="translate(24, 16)"/>
  
  <!-- R bleu (premier plan) -->
  <path d="M160 100C160 82.3268 174.327 68 192 68H288C341.019 68 384 110.981 384 164C384 217.019 341.019 260 288 260H192C174.327 260 160 245.673 160 228V100Z" 
        fill="#6A70F0"/>
  
  <!-- Barre horizontale du R bleu -->
  <rect x="160" y="200" width="224" height="48" fill="#6A70F0"/>
  
  <!-- Barre diagonale du R bleu -->
  <path d="M248 248L344 488" stroke="#6A70F0" stroke-width="32" stroke-linecap="round"/>
</svg>